<?xml version="1.0" encoding="UTF-8"?>
<svg width="1029px" height="509px" viewBox="0 0 1029 524" version="1.1" xmlns="http://www.w3.org/2000/svg" xmlns:xlink="http://www.w3.org/1999/xlink">
    <title>AC69D772-CDDA-48BB-B9E9-485819042D02</title>
    <defs>
        <circle id="path-1" cx="150" cy="150" r="150"></circle>
        <path d="M277.218181,364.701843 C417.590301,364.701843 516.544455,194.531878 497.386616,131.134332 C478.228777,67.7367858 419.709503,90.3790676 279.337383,90.3790676 C138.965263,90.3790676 23.0519738,-41.2668818 23.0519738,103.17204 C23.0519738,247.610962 136.846061,364.701843 277.218181,364.701843 Z" id="path-3"></path>
    </defs>
    <g id="Homepage" stroke="none" stroke-width="1" fill="none" fill-rule="evenodd">
        <g id="MD-Homepage-DE" transform="translate(70.000000, -4753.000000)">
            <g id="Background-4" transform="translate(-69.082375, 4753.152104)">
                <g id="Circled-Shape" transform="translate(79.082375, 222.847896)">
                    <mask id="mask-2" fill="white">
                        <use xlink:href="#path-1"></use>
                    </mask>
                    <use id="Mask" fill="#D8D8D8" xlink:href="#path-1"></use>
                    <g id="Color" mask="url(#mask-2)" fill="#FEFCE2">
                        <rect id="Rectangle" x="0" y="0" width="300" height="300"></rect>
                    </g>
                </g>
                <g id="Dappled-Shape-Bottom-Right" transform="translate(104.000000, 310.268400) rotate(88.000000) translate(-104.000000, -310.268400) translate(-10.000000, 210.268400)" fill="#FFD761">
                    <path d="M134.910435,193.748665 C136.384055,193.748665 137.579303,194.936162 137.579303,196.404551 C137.579303,197.869065 136.384055,199.058499 134.910435,199.058499 C133.436814,199.058499 132.243512,197.869065 132.243512,196.404551 C132.243512,194.936162 133.436814,193.748665 134.910435,193.748665 Z M224.848337,193.246546 C226.192127,193.246546 227.280743,194.331693 227.280743,195.668945 C227.280743,197.006197 226.192127,198.089517 224.848337,198.089517 C223.504548,198.089517 222.414096,197.006197 222.414096,195.668945 C222.414096,194.331693 223.504548,193.246546 224.848337,193.246546 Z M2.92835155,193.246546 C4.27293531,193.246546 5.36167466,194.329989 5.36167466,195.668031 C5.36167466,197.006074 4.27293531,198.089517 2.92835155,198.089517 C1.58376779,198.089517 0.495028434,197.006074 0.495028434,195.668031 C0.495028434,194.329989 1.58376779,193.246546 2.92835155,193.246546 Z M120.702078,193.246546 C122.046132,193.246546 123.134513,194.3314 123.134513,195.668915 C123.134513,197.004663 122.046132,198.089517 120.702078,198.089517 C119.358024,198.089517 118.267867,197.004663 118.267867,195.668915 C118.267867,194.3314 119.358024,193.246546 120.702078,193.246546 Z M150.873509,193.246546 C152.217563,193.246546 153.30772,194.3314 153.30772,195.668915 C153.30772,197.004663 152.217563,198.089517 150.873509,198.089517 C149.529455,198.089517 148.441074,197.004663 148.441074,195.668915 C148.441074,194.3314 149.529455,193.246546 150.873509,193.246546 Z M196.621759,192.277952 C197.965813,192.277952 199.054195,193.361039 199.054195,194.698554 C199.054195,196.036069 197.965813,197.120923 196.621759,197.120923 C195.277706,197.120923 194.187548,196.036069 194.187548,194.698554 C194.187548,193.361039 195.277706,192.277952 196.621759,192.277952 Z M19.474061,192.277952 C20.8181147,192.277952 21.9082718,193.362805 21.9082718,194.700321 C21.9082718,196.036069 20.8181147,197.120923 19.474061,197.120923 C18.1300073,197.120923 17.0416256,196.036069 17.0416256,194.700321 C17.0416256,193.362805 18.1300073,192.277952 19.474061,192.277952 Z M50.6205968,192.277952 C51.9646505,192.277952 53.0548077,193.361039 53.0548077,194.698554 C53.0548077,196.036069 51.9646505,197.120923 50.6205968,197.120923 C49.2765431,197.120923 48.1881615,196.036069 48.1881615,194.698554 C48.1881615,193.361039 49.2765431,192.277952 50.6205968,192.277952 Z M65.222311,192.277952 C66.5645892,192.277952 67.6547464,193.361039 67.6547464,194.698554 C67.6547464,196.036069 66.5645892,197.120923 65.222311,197.120923 C63.8782573,197.120923 62.7881002,196.036069 62.7881002,194.698554 C62.7881002,193.361039 63.8782573,192.277952 65.222311,192.277952 Z M79.8204742,192.277952 C81.1645279,192.277952 82.2546851,193.361039 82.2546851,194.700321 C82.2546851,196.036069 81.1645279,197.120923 79.8204742,197.120923 C78.4764205,197.120923 77.3880389,196.036069 77.3880389,194.700321 C77.3880389,193.361039 78.4764205,192.277952 79.8204742,192.277952 Z M93.4470837,192.277952 C94.7911374,192.277952 95.8812945,193.362805 95.8812945,194.700321 C95.8812945,196.036069 94.7911374,197.120923 93.4470837,197.120923 C92.10303,197.120923 91.0146483,196.036069 91.0146483,194.700321 C91.0146483,193.362805 92.10303,192.277952 93.4470837,192.277952 Z M107.074581,192.277952 C108.418144,192.277952 109.507904,193.361039 109.507904,194.698554 C109.507904,196.036069 108.418144,197.120923 107.074581,197.120923 C105.731017,197.120923 104.641258,196.036069 104.641258,194.698554 C104.641258,193.361039 105.731017,192.277952 107.074581,192.277952 Z M211.22081,192.277952 C212.564374,192.277952 213.654133,193.362805 213.654133,194.698554 C213.654133,196.036069 212.564374,197.120923 211.22081,197.120923 C209.877247,197.120923 208.787487,196.036069 208.787487,194.698554 C208.787487,193.362805 209.877247,192.277952 211.22081,192.277952 Z M181.048491,192.277952 C182.392545,192.277952 183.480927,193.361039 183.480927,194.698554 C183.480927,196.036069 182.392545,197.120923 181.048491,197.120923 C179.704438,197.120923 178.61428,196.036069 178.61428,194.698554 C178.61428,193.361039 179.704438,192.277952 181.048491,192.277952 Z M36.0224337,191.309357 C37.3664874,191.309357 38.454869,192.394211 38.454869,193.731726 C38.454869,195.067475 37.3664874,196.152329 36.0224337,196.152329 C34.67838,196.152329 33.5882228,195.067475 33.5882228,193.731726 C33.5882228,192.394211 34.67838,191.309357 36.0224337,191.309357 Z M166.448553,191.309357 C167.792606,191.309357 168.880988,192.392444 168.880988,193.72996 C168.880988,195.067475 167.792606,196.152329 166.448553,196.152329 C165.104499,196.152329 164.014342,195.067475 164.014342,193.72996 C164.014342,192.392444 165.104499,191.309357 166.448553,191.309357 Z M155.740155,184.529198 C157.084209,184.529198 158.174366,185.614052 158.174366,186.951567 C158.174366,188.287315 157.084209,189.372169 155.740155,189.372169 C154.396102,189.372169 153.30772,188.287315 153.30772,186.951567 C153.30772,185.614052 154.396102,184.529198 155.740155,184.529198 Z M142.115321,183.560604 C143.459375,183.560604 144.547757,184.643691 144.547757,185.981206 C144.547757,187.318721 143.459375,188.403575 142.115321,188.403575 C140.771268,188.403575 139.681111,187.318721 139.681111,185.981206 C139.681111,184.643691 140.771268,183.560604 142.115321,183.560604 Z M188.834238,182.592009 C190.177801,182.592009 191.267561,183.675096 191.267561,185.014378 C191.267561,186.350127 190.177801,187.434981 188.834238,187.434981 C187.490674,187.434981 186.400914,186.350127 186.400914,185.014378 C186.400914,183.675096 187.490674,182.592009 188.834238,182.592009 Z M127.515383,182.592009 C128.859436,182.592009 129.947818,183.676863 129.947818,185.014378 C129.947818,186.350127 128.859436,187.434981 127.515383,187.434981 C126.171329,187.434981 125.081172,186.350127 125.081172,185.014378 C125.081172,183.676863 126.171329,182.592009 127.515383,182.592009 Z M113.887886,181.623415 C115.231449,181.623415 116.321209,182.708269 116.321209,184.045784 C116.321209,185.381532 115.231449,186.466386 113.887886,186.466386 C112.544322,186.466386 111.454562,185.381532 111.454562,184.045784 C111.454562,182.708269 112.544322,181.623415 113.887886,181.623415 Z M10.7140978,181.623415 C12.0581515,181.623415 13.1483086,182.708269 13.1483086,184.045784 C13.1483086,185.381532 12.0581515,186.466386 10.7140978,186.466386 C9.37004406,186.466386 8.2816624,185.381532 8.2816624,184.045784 C8.2816624,182.708269 9.37004406,181.623415 10.7140978,181.623415 Z M203.434176,180.654821 C204.77774,180.654821 205.867499,181.739675 205.867499,183.07719 C205.867499,184.412938 204.77774,185.497792 203.434176,185.497792 C202.090613,185.497792 201.000853,184.412938 201.000853,183.07719 C201.000853,181.739675 202.090613,180.654821 203.434176,180.654821 Z M47.7006091,180.654821 C49.0446628,180.654821 50.13482,181.737908 50.13482,183.075423 C50.13482,184.412938 49.0446628,185.497792 47.7006091,185.497792 C46.3565554,185.497792 45.2681737,184.412938 45.2681737,183.075423 C45.2681737,181.737908 46.3565554,180.654821 47.7006091,180.654821 Z M87.6079959,180.654821 C88.9515595,180.654821 90.0413191,181.739675 90.0413191,183.07719 C90.0413191,184.412938 88.9515595,185.497792 87.6079959,185.497792 C86.2644324,185.497792 85.1746728,184.412938 85.1746728,183.07719 C85.1746728,181.739675 86.2644324,180.654821 87.6079959,180.654821 Z M73.9822742,180.654821 C75.3263279,180.654821 76.4147096,181.737908 76.4147096,183.07719 C76.4147096,184.412938 75.3263279,185.497792 73.9822742,185.497792 C72.6382205,185.497792 71.5480634,184.412938 71.5480634,183.07719 C71.5480634,181.737908 72.6382205,180.654821 73.9822742,180.654821 Z M60.3538893,180.654821 C61.697943,180.654821 62.7881002,181.737908 62.7881002,183.075423 C62.7881002,184.412938 61.697943,185.497792 60.3538893,185.497792 C59.0098356,185.497792 57.9214539,184.412938 57.9214539,183.075423 C57.9214539,181.737908 59.0098356,180.654821 60.3538893,180.654821 Z M100.260388,180.654821 C101.604442,180.654821 102.694599,181.737908 102.694599,183.07719 C102.694599,184.412938 101.604442,185.497792 100.260388,185.497792 C98.9163347,185.497792 97.827953,184.412938 97.827953,183.07719 C97.827953,181.737908 98.9163347,180.654821 100.260388,180.654821 Z M175.207628,180.654821 C176.551192,180.654821 177.640951,181.739675 177.640951,183.07719 C177.640951,184.412938 176.551192,185.497792 175.207628,185.497792 C173.864065,185.497792 172.774305,184.412938 172.774305,183.07719 C172.774305,181.739675 173.864065,180.654821 175.207628,180.654821 Z M24.3424827,180.654821 C25.6865364,180.654821 26.7749181,181.737908 26.7749181,183.075423 C26.7749181,184.412938 25.6865364,185.497792 24.3424827,185.497792 C22.998429,185.497792 21.9082718,184.412938 21.9082718,183.075423 C21.9082718,181.737908 22.998429,180.654821 24.3424827,180.654821 Z M216.087456,179.686227 C217.431903,179.686227 218.52078,180.769806 218.52078,182.107712 C218.52078,183.443828 217.431903,184.529198 216.087456,184.529198 C214.744809,184.529198 213.654133,183.443828 213.654133,182.107712 C213.654133,180.769806 214.744809,179.686227 216.087456,179.686227 Z M36.0215459,178.717632 C37.3651094,178.717632 38.454869,179.802486 38.454869,181.140001 C38.454869,182.47575 37.3651094,183.560604 36.0215459,183.560604 C34.6779824,183.560604 33.5882228,182.47575 33.5882228,181.140001 C33.5882228,179.802486 34.6779824,178.717632 36.0215459,178.717632 Z M163.528565,176.780444 C164.872619,176.780444 165.961,177.863531 165.961,179.202813 C165.961,180.538561 164.872619,181.623415 163.528565,181.623415 C162.184511,181.623415 161.094354,180.538561 161.094354,179.202813 C161.094354,177.863531 162.184511,176.780444 163.528565,176.780444 Z M148.926851,173.874661 C150.270904,173.874661 151.361062,174.959515 151.361062,176.29703 C151.361062,177.632779 150.270904,178.717632 148.926851,178.717632 C147.582797,178.717632 146.494415,177.632779 146.494415,176.29703 C146.494415,174.959515 147.582797,173.874661 148.926851,173.874661 Z M135.302017,172.906067 C136.64607,172.906067 137.734452,173.990921 137.734452,175.328436 C137.734452,176.664184 136.64607,177.749038 135.302017,177.749038 C133.957963,177.749038 132.867806,176.664184 132.867806,175.328436 C132.867806,173.990921 133.957963,172.906067 135.302017,172.906067 Z M196.621759,171.937473 C197.965813,171.937473 199.054195,173.02056 199.054195,174.358075 C199.054195,175.69559 197.965813,176.780444 196.621759,176.780444 C195.277706,176.780444 194.187548,175.69559 194.187548,174.358075 C194.187548,173.02056 195.277706,171.937473 196.621759,171.937473 Z M121.67452,170.968879 C123.018083,170.968879 124.107843,172.053732 124.107843,173.391248 C124.107843,174.726996 123.018083,175.81185 121.67452,175.81185 C120.330956,175.81185 119.241196,174.726996 119.241196,173.391248 C119.241196,172.053732 120.330956,170.968879 121.67452,170.968879 Z M182.994262,170.968879 C184.337826,170.968879 185.427585,172.053732 185.427585,173.391248 C185.427585,174.726996 184.337826,175.81185 182.994262,175.81185 C181.650699,175.81185 180.560939,174.726996 180.560939,173.391248 C180.560939,172.053732 181.650699,170.968879 182.994262,170.968879 Z M108.047022,170.000284 C109.391076,170.000284 110.481233,171.085138 110.481233,172.422653 C110.481233,173.758402 109.391076,174.843256 108.047022,174.843256 C106.702969,174.843256 105.614587,173.758402 105.614587,172.422653 C105.614587,171.085138 106.702969,170.000284 108.047022,170.000284 Z M94.4221884,169.03169 C95.7644666,169.03169 96.8546238,170.116544 96.8546238,171.454059 C96.8546238,172.789807 95.7644666,173.874661 94.4221884,173.874661 C93.0781347,173.874661 91.9879775,172.789807 91.9879775,171.454059 C91.9879775,170.116544 93.0781347,169.03169 94.4221884,169.03169 Z M81.7680205,169.03169 C83.111584,169.03169 84.2013436,170.114777 84.2013436,171.452292 C84.2013436,172.789807 83.111584,173.874661 81.7680205,173.874661 C80.4244569,173.874661 79.3346973,172.789807 79.3346973,171.452292 C79.3346973,170.114777 80.4244569,169.03169 81.7680205,169.03169 Z M15.5816317,169.03169 C16.924348,169.03169 18.0149549,170.115133 18.0149549,171.453176 C18.0149549,172.791218 16.924348,173.874661 15.5816317,173.874661 C14.237048,173.874661 13.1483086,172.791218 13.1483086,171.453176 C13.1483086,170.115133 14.237048,169.03169 15.5816317,169.03169 Z M29.2073534,168.063096 C30.5514071,168.063096 31.6415643,169.14795 31.6415643,170.485465 C31.6415643,171.821213 30.5514071,172.906067 29.2073534,172.906067 C27.8632997,172.906067 26.7749181,171.821213 26.7749181,170.485465 C26.7749181,169.14795 27.8632997,168.063096 29.2073534,168.063096 Z M55.4872431,168.063096 C56.8312968,168.063096 57.9214539,169.146183 57.9214539,170.483698 C57.9214539,171.821213 56.8312968,172.906067 55.4872431,172.906067 C54.1431894,172.906067 53.0548077,171.821213 53.0548077,170.483698 C53.0548077,169.146183 54.1431894,168.063096 55.4872431,168.063096 Z M68.1422988,168.063096 C69.4863525,168.063096 70.5747341,169.146183 70.5747341,170.485465 C70.5747341,171.821213 69.4863525,172.906067 68.1422988,172.906067 C66.7982451,172.906067 65.7080879,171.821213 65.7080879,170.485465 C65.7080879,169.146183 66.7982451,168.063096 68.1422988,168.063096 Z M170.34187,167.094502 C171.685923,167.094502 172.774305,168.177589 172.774305,169.516871 C172.774305,170.852619 171.685923,171.937473 170.34187,171.937473 C168.997816,171.937473 167.907659,170.852619 167.907659,169.516871 C167.907659,168.177589 168.997816,167.094502 170.34187,167.094502 Z M42.8348506,167.094502 C44.1784142,167.094502 45.2681737,168.177589 45.2681737,169.515104 C45.2681737,170.852619 44.1784142,171.937473 42.8348506,171.937473 C41.4912871,171.937473 40.4015275,170.852619 40.4015275,169.515104 C40.4015275,168.177589 41.4912871,167.094502 42.8348506,167.094502 Z M207.326605,166.125907 C208.670659,166.125907 209.760816,167.210761 209.760816,168.548276 C209.760816,169.884025 208.670659,170.968879 207.326605,170.968879 C205.984327,170.968879 204.89417,169.884025 204.89417,168.548276 C204.89417,167.210761 205.984327,166.125907 207.326605,166.125907 Z M156.714372,165.157313 C158.057936,165.157313 159.147696,166.2404 159.147696,167.577915 C159.147696,168.915431 158.057936,170.000284 156.714372,170.000284 C155.370809,170.000284 154.281049,168.915431 154.281049,167.577915 C154.281049,166.2404 155.370809,165.157313 156.714372,165.157313 Z M142.114434,162.251531 C143.457997,162.251531 144.547757,163.334617 144.547757,164.672133 C144.547757,166.009648 143.457997,167.094502 142.114434,167.094502 C140.77087,167.094502 139.681111,166.009648 139.681111,164.672133 C139.681111,163.334617 140.77087,162.251531 142.114434,162.251531 Z M128.488712,161.282936 C129.832766,161.282936 130.921147,162.366023 130.921147,163.703538 C130.921147,165.041054 129.832766,166.125907 128.488712,166.125907 C127.144658,166.125907 126.054501,165.041054 126.054501,163.703538 C126.054501,162.366023 127.144658,161.282936 128.488712,161.282936 Z M192.728442,161.282936 C194.072496,161.282936 195.160878,162.36779 195.160878,163.705305 C195.160878,165.041054 194.072496,166.125907 192.728442,166.125907 C191.384389,166.125907 190.294231,165.041054 190.294231,163.705305 C190.294231,162.36779 191.384389,161.282936 192.728442,161.282936 Z M114.860327,159.345748 C116.204381,159.345748 117.294538,160.430602 117.294538,161.768117 C117.294538,163.103865 116.204381,164.188719 114.860327,164.188719 C113.516273,164.188719 112.427892,163.103865 112.427892,161.768117 C112.427892,160.430602 113.516273,159.345748 114.860327,159.345748 Z M179.100945,158.377154 C180.444509,158.377154 181.534268,159.462007 181.534268,160.799523 C181.534268,162.135271 180.444509,163.220125 179.100945,163.220125 C177.757382,163.220125 176.667622,162.135271 176.667622,160.799523 C176.667622,159.462007 177.757382,158.377154 179.100945,158.377154 Z M102.208822,158.377154 C103.552876,158.377154 104.641258,159.462007 104.641258,160.799523 C104.641258,162.135271 103.552876,163.220125 102.208822,163.220125 C100.864769,163.220125 99.7746115,162.135271 99.7746115,160.799523 C99.7746115,159.462007 100.864769,158.377154 102.208822,158.377154 Z M88.5822129,157.408559 C89.9262666,157.408559 91.0146483,158.493413 91.0146483,159.830928 C91.0146483,161.166677 89.9262666,162.251531 88.5822129,162.251531 C87.2381592,162.251531 86.1480021,161.166677 86.1480021,159.830928 C86.1480021,158.493413 87.2381592,157.408559 88.5822129,157.408559 Z M22.3949365,156.439965 C23.7399141,156.439965 24.8282596,157.524463 24.8282596,158.862382 C24.8282596,160.198439 23.7399141,161.282936 22.3949365,161.282936 C21.0499588,161.282936 19.9616134,160.198439 19.9616134,158.862382 C19.9616134,157.524463 21.0499588,156.439965 22.3949365,156.439965 Z M75.9271572,156.439965 C77.2712109,156.439965 78.3613681,157.524819 78.3613681,158.862334 C78.3613681,160.198082 77.2712109,161.282936 75.9271572,161.282936 C74.5831035,161.282936 73.4947219,160.198082 73.4947219,158.862334 C73.4947219,157.524819 74.5831035,156.439965 75.9271572,156.439965 Z M49.6481553,155.471371 C50.9917189,155.471371 52.0814785,156.556225 52.0814785,157.89374 C52.0814785,159.229488 50.9917189,160.314342 49.6481553,160.314342 C48.3045918,160.314342 47.2148322,159.229488 47.2148322,157.89374 C47.2148322,156.556225 48.3045918,155.471371 49.6481553,155.471371 Z M36.0215459,155.471371 C37.3651094,155.471371 38.454869,156.554458 38.454869,157.891973 C38.454869,159.229488 37.3651094,160.314342 36.0215459,160.314342 C34.6779824,160.314342 33.5882228,159.229488 33.5882228,157.891973 C33.5882228,156.554458 34.6779824,155.471371 36.0215459,155.471371 Z M164.500119,155.471371 C165.844172,155.471371 166.934329,156.554458 166.934329,157.891973 C166.934329,159.229488 165.844172,160.314342 164.500119,160.314342 C163.156065,160.314342 162.067683,159.229488 162.067683,157.891973 C162.067683,156.554458 163.156065,155.471371 164.500119,155.471371 Z M63.2756525,155.471371 C64.6197062,155.471371 65.7080879,156.556225 65.7080879,157.89374 C65.7080879,159.229488 64.6197062,160.314342 63.2756525,160.314342 C61.9315988,160.314342 60.8414417,159.229488 60.8414417,157.89374 C60.8414417,156.556225 61.9315988,155.471371 63.2756525,155.471371 Z M150.873509,153.534182 C152.217563,153.534182 153.30772,154.617269 153.30772,155.954785 C153.30772,157.2923 152.217563,158.377154 150.873509,158.377154 C149.529455,158.377154 148.441074,157.2923 148.441074,155.954785 C148.441074,154.617269 149.529455,153.534182 150.873509,153.534182 Z M201.487518,152.565588 C202.831826,152.565588 203.920841,153.649305 203.920841,154.987074 C203.920841,156.324842 202.831826,157.408559 201.487518,157.408559 C200.144995,157.408559 199.054195,156.324842 199.054195,154.987074 C199.054195,153.649305 200.144995,152.565588 201.487518,152.565588 Z M136.275346,150.6284 C137.6194,150.6284 138.707781,151.711487 138.707781,153.049002 C138.707781,154.386517 137.6194,155.471371 136.275346,155.471371 C134.931292,155.471371 133.841135,154.386517 133.841135,153.049002 C133.841135,151.711487 134.931292,150.6284 136.275346,150.6284 Z M122.647849,149.659806 C123.991412,149.659806 125.081172,150.742892 125.081172,152.080408 C125.081172,153.417923 123.991412,154.502777 122.647849,154.502777 C121.304285,154.502777 120.214526,153.417923 120.214526,152.080408 C120.214526,150.742892 121.304285,149.659806 122.647849,149.659806 Z M186.888467,148.691211 C188.23252,148.691211 189.320902,149.774298 189.320902,151.111813 C189.320902,152.449329 188.23252,153.534182 186.888467,153.534182 C185.544413,153.534182 184.454256,152.449329 184.454256,151.111813 C184.454256,149.774298 185.544413,148.691211 186.888467,148.691211 Z M109.020352,147.722617 C110.364405,147.722617 111.454562,148.807471 111.454562,150.144986 C111.454562,151.480734 110.364405,152.565588 109.020352,152.565588 C107.676298,152.565588 106.587916,151.480734 106.587916,150.144986 C106.587916,148.807471 107.676298,147.722617 109.020352,147.722617 Z M172.288528,146.754023 C173.632582,146.754023 174.720963,147.83711 174.720963,149.174625 C174.720963,150.51214 173.632582,151.596994 172.288528,151.596994 C170.944474,151.596994 169.854317,150.51214 169.854317,149.174625 C169.854317,147.83711 170.944474,146.754023 172.288528,146.754023 Z M96.3688469,145.785429 C97.7129006,145.785429 98.8012823,146.868516 98.8012823,148.206031 C98.8012823,149.543546 97.7129006,150.6284 96.3688469,150.6284 C95.0247932,150.6284 93.934636,149.543546 93.934636,148.206031 C93.934636,146.868516 95.0247932,145.785429 96.3688469,145.785429 Z M158.661919,144.816834 C160.005972,144.816834 161.094354,145.901688 161.094354,147.239203 C161.094354,148.574952 160.005972,149.659806 158.661919,149.659806 C157.317865,149.659806 156.227708,148.574952 156.227708,147.239203 C156.227708,145.901688 157.317865,144.816834 158.661919,144.816834 Z M83.7155667,144.816834 C85.0596204,144.816834 86.1480021,145.901688 86.1480021,147.239203 C86.1480021,148.574952 85.0596204,149.659806 83.7155667,149.659806 C82.371513,149.659806 81.2813558,148.574952 81.2813558,147.239203 C81.2813558,145.901688 82.371513,144.816834 83.7155667,144.816834 Z M31.1548997,143.84824 C32.4974228,143.84824 33.5882228,144.931957 33.5882228,146.269726 C33.5882228,147.607494 32.4974228,148.691211 31.1548997,148.691211 C29.8105913,148.691211 28.7215766,147.607494 28.7215766,146.269726 C28.7215766,144.931957 29.8105913,143.84824 31.1548997,143.84824 Z M44.7815091,143.84824 C46.1250726,143.84824 47.2148322,144.933094 47.2148322,146.270609 C47.2148322,147.606357 46.1250726,148.691211 44.7815091,148.691211 C43.4379456,148.691211 42.348186,147.606357 42.348186,146.270609 C42.348186,144.933094 43.4379456,143.84824 44.7815091,143.84824 Z M57.4347893,143.84824 C58.7783528,143.84824 59.8681124,144.933094 59.8681124,146.270609 C59.8681124,147.606357 58.7783528,148.691211 57.4347893,148.691211 C56.0912258,148.691211 55.0014662,147.606357 55.0014662,146.270609 C55.0014662,144.933094 56.0912258,143.84824 57.4347893,143.84824 Z M70.0871818,143.84824 C71.4312355,143.84824 72.5213926,144.933094 72.5213926,146.270609 C72.5213926,147.606357 71.4312355,148.691211 70.0871818,148.691211 C68.7431281,148.691211 67.6547464,147.606357 67.6547464,146.270609 C67.6547464,144.933094 68.7431281,143.84824 70.0871818,143.84824 Z M144.06198,141.911052 C145.406034,141.911052 146.494415,142.994139 146.494415,144.331654 C146.494415,145.669169 145.406034,146.754023 144.06198,146.754023 C142.717926,146.754023 141.627769,145.669169 141.627769,144.331654 C141.627769,142.994139 142.717926,141.911052 144.06198,141.911052 Z M193.700884,139.005269 C195.044034,139.005269 196.134207,140.090138 196.134207,141.426755 C196.134207,142.763371 195.044034,143.84824 193.700884,143.84824 C192.357733,143.84824 191.267561,142.763371 191.267561,141.426755 C191.267561,140.090138 192.357733,139.005269 193.700884,139.005269 Z M130.435371,139.005269 C131.779424,139.005269 132.867806,140.088356 132.867806,141.425871 C132.867806,142.763386 131.779424,143.84824 130.435371,143.84824 C129.091317,143.84824 128.00116,142.763386 128.00116,141.425871 C128.00116,140.088356 129.091317,139.005269 130.435371,139.005269 Z M180.075162,137.068081 C181.419216,137.068081 182.507597,138.152934 182.507597,139.49045 C182.507597,140.826198 181.419216,141.911052 180.075162,141.911052 C178.731108,141.911052 177.640951,140.826198 177.640951,139.49045 C177.640951,138.152934 178.731108,137.068081 180.075162,137.068081 Z M116.808761,137.068081 C118.152815,137.068081 119.241196,138.152934 119.241196,139.49045 C119.241196,140.826198 118.152815,141.911052 116.808761,141.911052 C115.464707,141.911052 114.37455,140.826198 114.37455,139.49045 C114.37455,138.152934 115.464707,137.068081 116.808761,137.068081 Z M104.154593,135.130892 C105.498157,135.130892 106.587916,136.213979 106.587916,137.551494 C106.587916,138.889009 105.498157,139.973863 104.154593,139.973863 C102.81103,139.973863 101.72127,138.889009 101.72127,137.551494 C101.72127,136.213979 102.81103,135.130892 104.154593,135.130892 Z M166.446777,135.130892 C167.790831,135.130892 168.880988,136.215746 168.880988,137.553261 C168.880988,138.889009 167.790831,139.973863 166.446777,139.973863 C165.102723,139.973863 164.014342,138.889009 164.014342,137.553261 C164.014342,136.215746 165.102723,135.130892 166.446777,135.130892 Z M90.5270959,133.193704 C91.8711496,133.193704 92.9613068,134.278557 92.9613068,135.616073 C92.9613068,136.951821 91.8711496,138.036675 90.5270959,138.036675 C89.1830422,138.036675 88.0946606,136.951821 88.0946606,135.616073 C88.0946606,134.278557 89.1830422,133.193704 90.5270959,133.193704 Z M151.846838,133.193704 C153.190892,133.193704 154.281049,134.278557 154.281049,135.616073 C154.281049,136.951821 153.190892,138.036675 151.846838,138.036675 C150.502785,138.036675 149.414403,136.951821 149.414403,135.616073 C149.414403,134.278557 150.502785,133.193704 151.846838,133.193704 Z M38.9415336,132.225109 C40.2844272,132.225109 41.3748568,133.309835 41.3748568,134.645704 C41.3748568,135.983355 40.2844272,137.068081 38.9415336,137.068081 C37.5968496,137.068081 36.5082105,135.983355 36.5082105,134.645704 C36.5082105,133.309835 37.5968496,132.225109 38.9415336,132.225109 Z M77.8747035,132.225109 C79.218267,132.225109 80.3080266,133.309963 80.3080266,134.647478 C80.3080266,135.983227 79.218267,137.068081 77.8747035,137.068081 C76.53114,137.068081 75.4413804,135.983227 75.4413804,134.647478 C75.4413804,133.309963 76.53114,132.225109 77.8747035,132.225109 Z M51.5957016,131.256515 C52.9397553,131.256515 54.028137,132.341369 54.028137,133.678884 C54.028137,135.014632 52.9397553,136.099486 51.5957016,136.099486 C50.2516479,136.099486 49.1614907,135.014632 49.1614907,133.678884 C49.1614907,132.341369 50.2516479,131.256515 51.5957016,131.256515 Z M65.2214233,131.256515 C66.5649868,131.256515 67.6547464,132.341369 67.6547464,133.678884 C67.6547464,135.014632 66.5649868,136.099486 65.2214233,136.099486 C63.8778598,136.099486 62.7881002,135.014632 62.7881002,133.678884 C62.7881002,132.341369 63.8778598,131.256515 65.2214233,131.256515 Z M138.220229,130.287921 C139.564283,130.287921 140.65444,131.372775 140.65444,132.71029 C140.65444,134.046038 139.564283,135.130892 138.220229,135.130892 C136.876175,135.130892 135.787794,134.046038 135.787794,132.71029 C135.787794,131.372775 136.876175,130.287921 138.220229,130.287921 Z M124.59362,127.382138 C125.937673,127.382138 127.02783,128.465225 127.02783,129.80274 C127.02783,131.140256 125.937673,132.225109 124.59362,132.225109 C123.249566,132.225109 122.161184,131.140256 122.161184,129.80274 C122.161184,128.465225 123.249566,127.382138 124.59362,127.382138 Z M185.913362,127.382138 C187.257416,127.382138 188.347573,128.466992 188.347573,129.804507 C188.347573,131.140256 187.257416,132.225109 185.913362,132.225109 C184.569308,132.225109 183.480927,131.140256 183.480927,129.804507 C183.480927,128.466992 184.569308,127.382138 185.913362,127.382138 Z M173.261857,125.44495 C174.605911,125.44495 175.694293,126.529804 175.694293,127.867319 C175.694293,129.203067 174.605911,130.287921 173.261857,130.287921 C171.917804,130.287921 170.827646,129.203067 170.827646,127.867319 C170.827646,126.529804 171.917804,125.44495 173.261857,125.44495 Z M111.941227,124.476356 C113.284791,124.476356 114.37455,125.559442 114.37455,126.896958 C114.37455,128.234473 113.284791,129.319327 111.941227,129.319327 C110.597664,129.319327 109.507904,128.234473 109.507904,126.896958 C109.507904,125.559442 110.597664,124.476356 111.941227,124.476356 Z M159.633472,123.507761 C160.977526,123.507761 162.067683,124.590848 162.067683,125.928363 C162.067683,127.265879 160.977526,128.350732 159.633472,128.350732 C158.289419,128.350732 157.201037,127.265879 157.201037,125.928363 C157.201037,124.590848 158.289419,123.507761 159.633472,123.507761 Z M98.3137299,122.539167 C99.6577836,122.539167 100.747941,123.622254 100.747941,124.959769 C100.747941,126.297284 99.6577836,127.382138 98.3137299,127.382138 C96.9696762,127.382138 95.8812945,126.297284 95.8812945,124.959769 C95.8812945,123.622254 96.9696762,122.539167 98.3137299,122.539167 Z M84.6880082,120.601979 C86.0315717,120.601979 87.1213313,121.685066 87.1213313,123.022581 C87.1213313,124.360096 86.0315717,125.44495 84.6880082,125.44495 C83.3444447,125.44495 82.2546851,124.360096 82.2546851,123.022581 C82.2546851,121.685066 83.3444447,120.601979 84.6880082,120.601979 Z M146.006863,120.601979 C147.350917,120.601979 148.441074,121.686832 148.441074,123.024348 C148.441074,124.360096 147.350917,125.44495 146.006863,125.44495 C144.662809,125.44495 143.574428,124.360096 143.574428,123.024348 C143.574428,121.686832 144.662809,120.601979 146.006863,120.601979 Z M45.7548384,119.633384 C47.0987505,119.633384 48.1881615,120.717088 48.1881615,122.053959 C48.1881615,123.390831 47.0987505,124.476356 45.7548384,124.476356 C44.4109263,124.476356 43.3215153,123.390831 43.3215153,122.053959 C43.3215153,120.717088 44.4109263,119.633384 45.7548384,119.633384 Z M72.0338403,119.633384 C73.377894,119.633384 74.4680511,120.716471 74.4680511,122.053987 C74.4680511,123.391502 73.377894,124.476356 72.0338403,124.476356 C70.6897866,124.476356 69.6014049,123.391502 69.6014049,122.053987 C69.6014049,120.716471 70.6897866,119.633384 72.0338403,119.633384 Z M58.4090063,118.66479 C59.75306,118.66479 60.8414417,119.749644 60.8414417,121.087159 C60.8414417,122.422907 59.75306,123.507761 58.4090063,123.507761 C57.0649526,123.507761 55.9747954,122.422907 55.9747954,121.087159 C55.9747954,119.749644 57.0649526,118.66479 58.4090063,118.66479 Z M132.381141,117.696196 C133.724705,117.696196 134.814464,118.779283 134.814464,120.116798 C134.814464,121.454313 133.724705,122.539167 132.381141,122.539167 C131.037578,122.539167 129.947818,121.454313 129.947818,120.116798 C129.947818,118.779283 131.037578,117.696196 132.381141,117.696196 Z M179.100945,114.790413 C180.44488,114.790413 181.534268,115.874899 181.534268,117.212785 C181.534268,118.550671 180.44488,119.633384 179.100945,119.633384 C177.75701,119.633384 176.667622,118.550671 176.667622,117.212785 C176.667622,115.874899 177.75701,114.790413 179.100945,114.790413 Z M119.726973,113.821819 C121.071027,113.821819 122.161184,114.906673 122.161184,116.244188 C122.161184,117.579936 121.071027,118.66479 119.726973,118.66479 C118.38292,118.66479 117.294538,117.579936 117.294538,116.244188 C117.294538,114.906673 118.38292,113.821819 119.726973,113.821819 Z M166.447665,113.821819 C167.791228,113.821819 168.880988,114.906673 168.880988,116.244188 C168.880988,117.579936 167.791228,118.66479 166.447665,118.66479 C165.104101,118.66479 164.014342,117.579936 164.014342,116.244188 C164.014342,114.906673 165.104101,113.821819 166.447665,113.821819 Z M107.074581,111.884631 C108.418144,111.884631 109.507904,112.969484 109.507904,114.307 C109.507904,115.642748 108.418144,116.727602 107.074581,116.727602 C105.731017,116.727602 104.641258,115.642748 104.641258,114.307 C104.641258,112.969484 105.731017,111.884631 107.074581,111.884631 Z M153.795272,111.884631 C155.139326,111.884631 156.227708,112.967717 156.227708,114.307 C156.227708,115.642748 155.139326,116.727602 153.795272,116.727602 C152.451219,116.727602 151.361062,115.642748 151.361062,114.307 C151.361062,112.967717 152.451219,111.884631 153.795272,111.884631 Z M93.4479714,109.947442 C94.7915349,109.947442 95.8812945,111.030529 95.8812945,112.368044 C95.8812945,113.705559 94.7915349,114.790413 93.4479714,114.790413 C92.1044079,114.790413 91.0146483,113.705559 91.0146483,112.368044 C91.0146483,111.030529 92.1044079,109.947442 93.4479714,109.947442 Z M78.847145,108.010254 C80.1911987,108.010254 81.2813558,109.095107 81.2813558,110.432623 C81.2813558,111.768371 80.1911987,112.853225 78.847145,112.853225 C77.5030913,112.853225 76.4147096,111.768371 76.4147096,110.432623 C76.4147096,109.095107 77.5030913,108.010254 78.847145,108.010254 Z M140.168663,108.010254 C141.512717,108.010254 142.601098,109.095107 142.601098,110.432623 C142.601098,111.768371 141.512717,112.853225 140.168663,112.853225 C138.824609,112.853225 137.734452,111.768371 137.734452,110.432623 C137.734452,109.095107 138.824609,108.010254 140.168663,108.010254 Z M52.5681431,107.041659 C53.9118086,107.041659 55.0014662,108.126016 55.0014662,109.463145 C55.0014662,110.800274 53.9118086,111.884631 52.5681431,111.884631 C51.2244775,111.884631 50.13482,110.800274 50.13482,109.463145 C50.13482,108.126016 51.2244775,107.041659 52.5681431,107.041659 Z M66.1947525,107.041659 C67.5383161,107.041659 68.6280756,108.124746 68.6280756,109.462262 C68.6280756,110.799777 67.5383161,111.884631 66.1947525,111.884631 C64.851189,111.884631 63.7614294,110.799777 63.7614294,109.462262 C63.7614294,108.124746 64.851189,107.041659 66.1947525,107.041659 Z M128.487824,103.167282 C129.831388,103.167282 130.921147,104.250369 130.921147,105.587885 C130.921147,106.9254 129.831388,108.010254 128.487824,108.010254 C127.144261,108.010254 126.054501,106.9254 126.054501,105.587885 C126.054501,104.250369 127.144261,103.167282 128.487824,103.167282 Z M172.28764,103.167282 C173.631575,103.167282 174.720963,104.251768 174.720963,105.589654 C174.720963,106.92754 173.631575,108.010254 172.28764,108.010254 C170.943705,108.010254 169.854317,106.92754 169.854317,105.589654 C169.854317,104.251768 170.943705,103.167282 172.28764,103.167282 Z M159.633472,101.230094 C160.977526,101.230094 162.067683,102.314948 162.067683,103.652463 C162.067683,104.988211 160.977526,106.073065 159.633472,106.073065 C158.289419,106.073065 157.201037,104.988211 157.201037,103.652463 C157.201037,102.314948 158.289419,101.230094 159.633472,101.230094 Z M114.860327,101.230094 C116.204381,101.230094 117.294538,102.314948 117.294538,103.652463 C117.294538,104.988211 116.204381,106.073065 114.860327,106.073065 C113.518049,106.073065 112.427892,104.988211 112.427892,103.652463 C112.427892,102.314948 113.518049,101.230094 114.860327,101.230094 Z M101.235493,100.2615 C102.579547,100.2615 103.667928,101.344587 103.667928,102.683869 C103.667928,104.019617 102.579547,105.104471 101.235493,105.104471 C99.8914394,105.104471 98.8012823,104.019617 98.8012823,102.683869 C98.8012823,101.344587 99.8914394,100.2615 101.235493,100.2615 Z M146.981968,100.2615 C148.326021,100.2615 149.414403,101.346354 149.414403,102.683869 C149.414403,104.019617 148.326021,105.104471 146.981968,105.104471 C145.637914,105.104471 144.547757,104.019617 144.547757,102.683869 C144.547757,101.346354 145.637914,100.2615 146.981968,100.2615 Z M87.6088837,98.3243113 C88.9529374,98.3243113 90.0413191,99.4091651 90.0413191,100.74668 C90.0413191,102.082429 88.9529374,103.167282 87.6088837,103.167282 C86.26483,103.167282 85.1746728,102.082429 85.1746728,100.74668 C85.1746728,99.4091651 86.26483,98.3243113 87.6088837,98.3243113 Z M73.0080573,95.4185286 C74.3516208,95.4185286 75.4413804,96.5033824 75.4413804,97.8391307 C75.4413804,99.1766459 74.3516208,100.2615 73.0080573,100.2615 C71.6644937,100.2615 70.5747341,99.1766459 70.5747341,97.8391307 C70.5747341,96.5033824 71.6644937,95.4185286 73.0080573,95.4185286 Z M59.3804694,93.4813401 C60.7248144,93.4813401 61.8147709,94.5664306 61.8147709,95.9028257 C61.8147709,97.2411689 60.7248144,98.3243113 59.3804694,98.3243113 C58.0361244,98.3243113 56.9481247,97.2411689 56.9481247,95.9028257 C56.9481247,94.5664306 58.0361244,93.4813401 59.3804694,93.4813401 Z M137.2469,92.5127459 C138.590953,92.5127459 139.681111,93.5975997 139.681111,94.9351149 C139.681111,96.2708632 138.590953,97.3557171 137.2469,97.3557171 C135.902846,97.3557171 134.814464,96.2708632 134.814464,94.9351149 C134.814464,93.5975997 135.902846,92.5127459 137.2469,92.5127459 Z M123.621178,90.5755574 C124.964742,90.5755574 126.054501,91.6586444 126.054501,92.9961596 C126.054501,94.3336748 124.964742,95.4185286 123.621178,95.4185286 C122.277615,95.4185286 121.187855,94.3336748 121.187855,92.9961596 C121.187855,91.6586444 122.277615,90.5755574 123.621178,90.5755574 Z M165.474336,90.5755574 C166.81827,90.5755574 167.907659,91.6600427 167.907659,92.997929 C167.907659,94.3358153 166.81827,95.4185286 165.474336,95.4185286 C164.130401,95.4185286 163.041012,94.3358153 163.041012,92.997929 C163.041012,91.6600427 164.130401,90.5755574 165.474336,90.5755574 Z M151.848614,89.6069632 C153.192668,89.6069632 154.281049,90.691817 154.281049,92.0293322 C154.281049,93.3650806 153.192668,94.4499344 151.848614,94.4499344 C150.50456,94.4499344 149.414403,93.3650806 149.414403,92.0293322 C149.414403,90.691817 150.50456,89.6069632 151.848614,89.6069632 Z M109.994569,89.6069632 C111.338132,89.6069632 112.427892,90.6900501 112.427892,92.0275654 C112.427892,93.3650806 111.338132,94.4499344 109.994569,94.4499344 C108.651005,94.4499344 107.561245,93.3650806 107.561245,92.0275654 C107.561245,90.6900501 108.651005,89.6069632 109.994569,89.6069632 Z M96.3679592,87.6697747 C97.7115227,87.6697747 98.8012823,88.7528617 98.8012823,90.0921438 C98.8012823,91.4278921 97.7115227,92.5127459 96.3679592,92.5127459 C95.0243956,92.5127459 93.934636,91.4278921 93.934636,90.0921438 C93.934636,88.7528617 95.0243956,87.6697747 96.3679592,87.6697747 Z M82.7422375,85.7325863 C84.0862912,85.7325863 85.1746728,86.8156732 85.1746728,88.1531884 C85.1746728,89.4907036 84.0862912,90.5755574 82.7422375,90.5755574 C81.3981838,90.5755574 80.3080266,89.4907036 80.3080266,88.1531884 C80.3080266,86.8156732 81.3981838,85.7325863 82.7422375,85.7325863 Z M68.141411,81.8582094 C69.485858,81.8582094 70.5747341,82.9417883 70.5747341,84.2796949 C70.5747341,85.6158105 69.485858,86.7011805 68.141411,86.7011805 C66.796964,86.7011805 65.7080879,85.6158105 65.7080879,84.2796949 C65.7080879,82.9417883 66.796964,81.8582094 68.141411,81.8582094 Z M131.4087,79.9210209 C132.752753,79.9210209 133.841135,81.0058747 133.841135,82.3433899 C133.841135,83.6791382 132.752753,84.7639921 131.4087,84.7639921 C130.064646,84.7639921 128.974489,83.6791382 128.974489,82.3433899 C128.974489,81.0058747 130.064646,79.9210209 131.4087,79.9210209 Z M145.033534,79.9210209 C146.377587,79.9210209 147.467745,81.0041078 147.467745,82.3433899 C147.467745,83.6791382 146.377587,84.7639921 145.033534,84.7639921 C143.68948,84.7639921 142.601098,83.6791382 142.601098,82.3433899 C142.601098,81.0041078 143.68948,79.9210209 145.033534,79.9210209 Z M157.687702,78.9524267 C159.031636,78.9524267 160.121025,80.036912 160.121025,81.3747983 C160.121025,82.7126845 159.031636,83.7953978 157.687702,83.7953978 C156.343767,83.7953978 155.254379,82.7126845 155.254379,81.3747983 C155.254379,80.036912 156.343767,78.9524267 157.687702,78.9524267 Z M118.75542,78.9524267 C120.099473,78.9524267 121.187855,80.0355136 121.187855,81.3730288 C121.187855,82.710544 120.099473,83.7953978 118.75542,83.7953978 C117.411366,83.7953978 116.321209,82.710544 116.321209,81.3730288 C116.321209,80.0355136 117.411366,78.9524267 118.75542,78.9524267 Z M105.12881,77.0152382 C106.472864,77.0152382 107.561245,78.100092 107.561245,79.4376072 C107.561245,80.7733555 106.472864,81.8582094 105.12881,81.8582094 C103.784756,81.8582094 102.694599,80.7733555 102.694599,79.4376072 C102.694599,78.100092 103.784756,77.0152382 105.12881,77.0152382 Z M92.4755299,75.0780497 C93.8195836,75.0780497 94.9079653,76.1629035 94.9079653,77.5004188 C94.9079653,78.8361671 93.8195836,79.9210209 92.4755299,79.9210209 C91.1314762,79.9210209 90.0413191,78.8361671 90.0413191,77.5004188 C90.0413191,76.1629035 91.1314762,75.0780497 92.4755299,75.0780497 Z M78.8480327,74.1094555 C80.1915963,74.1094555 81.2813558,75.1943093 81.2813558,76.5318245 C81.2813558,77.8675729 80.1915963,78.9524267 78.8480327,78.9524267 C77.5044692,78.9524267 76.4147096,77.8675729 76.4147096,76.5318245 C76.4147096,75.1943093 77.5044692,74.1094555 78.8480327,74.1094555 Z M126.540278,67.3292959 C127.884332,67.3292959 128.974489,68.4123828 128.974489,69.749898 C128.974489,71.0874132 127.884332,72.172267 126.540278,72.172267 C125.196224,72.172267 124.107843,71.0874132 124.107843,69.749898 C124.107843,68.4123828 125.196224,67.3292959 126.540278,67.3292959 Z M139.193558,67.3292959 C140.537612,67.3292959 141.627769,68.4141497 141.627769,69.7516649 C141.627769,71.0874132 140.537612,72.172267 139.193558,72.172267 C137.849505,72.172267 136.761123,71.0874132 136.761123,69.7516649 C136.761123,68.4141497 137.849505,67.3292959 139.193558,67.3292959 Z M151.847726,67.3292959 C153.191661,67.3292959 154.281049,68.4137812 154.281049,69.7516675 C154.281049,71.0895538 153.191661,72.172267 151.847726,72.172267 C150.503791,72.172267 149.414403,71.0895538 149.414403,69.7516675 C149.414403,68.4137812 150.503791,67.3292959 151.847726,67.3292959 Z M112.913669,65.3921074 C114.257722,65.3921074 115.347879,66.4751944 115.347879,67.8127096 C115.347879,69.1502248 114.257722,70.2350786 112.913669,70.2350786 C111.569615,70.2350786 110.481233,69.1502248 110.481233,67.8127096 C110.481233,66.4751944 111.569615,65.3921074 112.913669,65.3921074 Z M87.6079959,63.454919 C88.9515595,63.454919 90.0413191,64.5397728 90.0413191,65.877288 C90.0413191,67.2130363 88.9515595,68.2978901 87.6079959,68.2978901 C86.2644324,68.2978901 85.1746728,67.2130363 85.1746728,65.877288 C85.1746728,64.5397728 86.2644324,63.454919 87.6079959,63.454919 Z M74.4689663,64.4235132 C75.5434266,64.4235132 76.4147096,65.2905576 76.4147096,66.3616124 C76.4147096,67.4308457 75.5434266,68.2978901 74.4689663,68.2978901 C73.3926756,68.2978901 72.5213926,67.4308457 72.5213926,66.3616124 C72.5213926,65.2905576 73.3926756,64.4235132 74.4689663,64.4235132 Z M101.233718,63.454919 C102.577771,63.454919 103.667928,64.5397728 103.667928,65.877288 C103.667928,67.2130363 102.577771,68.2978901 101.233718,68.2978901 C99.8896639,68.2978901 98.8012823,67.2130363 98.8012823,65.877288 C98.8012823,64.5397728 99.8896639,63.454919 101.233718,63.454919 Z M120.702078,54.7375709 C122.046132,54.7375709 123.134513,55.8224247 123.134513,57.1599399 C123.134513,58.4956882 122.046132,59.580542 120.702078,59.580542 C119.358024,59.580542 118.267867,58.4956882 118.267867,57.1599399 C118.267867,55.8224247 119.358024,54.7375709 120.702078,54.7375709 Z M144.061092,54.7375709 C145.405027,54.7375709 146.494415,55.8220562 146.494415,57.1599425 C146.494415,58.4978288 145.405027,59.580542 144.061092,59.580542 C142.717157,59.580542 141.627769,58.4978288 141.627769,57.1599425 C141.627769,55.8220562 142.717157,54.7375709 144.061092,54.7375709 Z M132.380253,53.7689767 C133.724307,53.7689767 134.814464,54.8538305 134.814464,56.1913457 C134.814464,57.527094 133.724307,58.6119478 132.380253,58.6119478 C131.0362,58.6119478 129.947818,57.527094 129.947818,56.1913457 C129.947818,54.8538305 131.0362,53.7689767 132.380253,53.7689767 Z M109.020352,51.8317882 C110.364405,51.8317882 111.454562,52.9148751 111.454562,54.2523903 C111.454562,55.5899055 110.364405,56.6747594 109.020352,56.6747594 C107.676298,56.6747594 106.587916,55.5899055 106.587916,54.2523903 C106.587916,52.9148751 107.676298,51.8317882 109.020352,51.8317882 Z M97.3412884,50.863194 C98.6848519,50.863194 99.7746115,51.9462809 99.7746115,53.285563 C99.7746115,54.6213113 98.6848519,55.7061651 97.3412884,55.7061651 C95.9977249,55.7061651 94.9079653,54.6213113 94.9079653,53.285563 C94.9079653,51.9462809 95.9977249,50.863194 97.3412884,50.863194 Z M84.6880082,50.863194 C86.0317837,50.863194 87.1213313,51.9474412 87.1213313,53.2846795 C87.1213313,54.6219179 86.0317837,55.7061651 84.6880082,55.7061651 C83.3442327,55.7061651 82.2546851,54.6219179 82.2546851,53.2846795 C82.2546851,51.9474412 83.3442327,50.863194 84.6880082,50.863194 Z M135.300241,41.1772517 C136.644295,41.1772517 137.734452,42.2603386 137.734452,43.5978538 C137.734452,44.935369 136.644295,46.0202228 135.300241,46.0202228 C133.956188,46.0202228 132.867806,44.935369 132.867806,43.5978538 C132.867806,42.2603386 133.956188,41.1772517 135.300241,41.1772517 Z M120.70119,41.1772517 C122.044754,41.1772517 123.134513,42.2603386 123.134513,43.5978538 C123.134513,44.935369 122.044754,46.0202228 120.70119,46.0202228 C119.357627,46.0202228 118.267867,44.935369 118.267867,43.5978538 C118.267867,42.2603386 119.357627,41.1772517 120.70119,41.1772517 Z M106.100364,39.2400632 C107.444418,39.2400632 108.534575,40.324917 108.534575,41.6624322 C108.534575,42.9981805 107.444418,44.0830344 106.100364,44.0830344 C104.75631,44.0830344 103.667928,42.9981805 103.667928,41.6624322 C103.667928,40.324917 104.75631,39.2400632 106.100364,39.2400632 Z M92.4746422,38.271469 C93.8186932,38.271469 94.9079653,39.355442 94.9079653,40.6929545 C94.9079653,42.0304671 93.8186932,43.1144401 92.4746422,43.1144401 C91.1305912,43.1144401 90.0413191,42.0304671 90.0413191,40.6929545 C90.0413191,39.355442 91.1305912,38.271469 92.4746422,38.271469 Z M127.515383,28.5855267 C128.859436,28.5855267 129.947818,29.6703805 129.947818,31.0061288 C129.947818,32.343644 128.859436,33.4284978 127.515383,33.4284978 C126.171329,33.4284978 125.081172,32.343644 125.081172,31.0061288 C125.081172,29.6703805 126.171329,28.5855267 127.515383,28.5855267 Z M113.888773,27.6169324 C115.231052,27.6169324 116.321209,28.7017862 116.321209,30.0393014 C116.321209,31.3750498 115.231052,32.4599036 113.888773,32.4599036 C112.54472,32.4599036 111.454562,31.3750498 111.454562,30.0393014 C111.454562,28.7017862 112.54472,27.6169324 113.888773,27.6169324 Z M99.2879469,25.679744 C100.63175,25.679744 101.72127,26.7643773 101.72127,28.1021534 C101.72127,29.4380818 100.63175,30.5227151 99.2879469,30.5227151 C97.9441437,30.5227151 96.8546238,29.4380818 96.8546238,28.1021534 C96.8546238,26.7643773 97.9441437,25.679744 99.2879469,25.679744 Z M120.702078,15.0252074 C122.044356,15.0252074 123.134513,16.1100612 123.134513,17.4475764 C123.134513,18.7833248 122.044356,19.8681786 120.702078,19.8681786 C119.358024,19.8681786 118.267867,18.7833248 118.267867,17.4475764 C118.267867,16.1100612 119.358024,15.0252074 120.702078,15.0252074 Z M108.04791,14.0566132 C109.391845,14.0566132 110.481233,15.1410985 110.481233,16.4789848 C110.481233,17.8168711 109.391845,18.8995844 108.04791,18.8995844 C106.703975,18.8995844 105.614587,17.8168711 105.614587,16.4789848 C105.614587,15.1410985 106.703975,14.0566132 108.04791,14.0566132 Z M113.377472,0.844213014 C114.658373,0.844213014 115.695942,1.87673446 115.695942,3.15140447 C115.695942,4.42607448 114.658373,5.45859593 113.377472,5.45859593 C112.09657,5.45859593 111.059001,4.42607448 111.059001,3.15140447 C111.059001,1.87673446 112.09657,0.844213014 113.377472,0.844213014 Z"></path>
                </g>
                <g id="Amorphous-Shape-Copy" transform="translate(732.744949, 247.000000) rotate(-11.000000) translate(-732.744949, -247.000000) translate(471.244949, 47.000000)">
                    <mask id="mask-4" fill="white">
                        <use xlink:href="#path-3"></use>
                    </mask>
                    <use id="Mask" fill="#F8F9FA" transform="translate(261.405883, 200.092790) scale(-1, 1) rotate(-9.000000) translate(-261.405883, -200.092790) " xlink:href="#path-3"></use>
                </g>
                <g id="Group-7" transform="translate(616.542911, 126.564315) rotate(-45.000000) translate(-616.542911, -126.564315) translate(573.042911, 76.564315)" stroke="#ECECEC" stroke-linecap="round" stroke-linejoin="round" stroke-width="5">
                    <path d="M43.4349193,99.1425807 L86.5177318,74.7488307 L86.5911693,25.1082057 L43.3583568,49.5019557 L43.4349193,99.1425807 Z M86.5944505,25.107737 L43.361638,49.5030495 L0.127263031,25.107737 L43.361638,0.713986969 L86.5944505,25.107737 Z M43.4349193,99.1425807 L0.202106781,74.7488307 L0.127106781,25.1082057 L43.3614818,49.5019557 L43.4349193,99.1425807 Z" id="Stroke-6"></path>
                </g>
            </g>
        </g>
    </g>
</svg>