<svg id="Ebene_1"
     data-name="Ebene 1"
     xmlns="http://www.w3.org/2000/svg"
     xmlns:xlink="http://www.w3.org/1999/xlink"
     viewBox="0 0 1280 709">
    <defs>
        <style>
        .cls-1{fill:#fff;}.cls-2{fill:#fff9e7;}.cls-3{mask:url(#mask);}.cls-4{fill:#fff3cf;}.cls-4,.cls-6{fill-rule:evenodd;}.cls-5{mask:url(#mask-2-2);}.cls-6{fill:#ffebb1;}.cls-7{mask:url(#mask-3);}</style>
        <mask id="mask" x="-458.83" y="0" width="1738.83" height="1082.7" maskUnits="userSpaceOnUse"><g id="mask-2"><rect id="path-1" class="cls-1" width="1280" height="709"/></g></mask><mask id="mask-2-2" x="0" y="0" width="1280" height="797.81" maskUnits="userSpaceOnUse"><g id="mask-2-3" data-name="mask-2"><rect id="path-1-2" data-name="path-1" class="cls-1" width="1280" height="709"/></g></mask><mask id="mask-3" x="0" y="0" width="1280" height="709" maskUnits="userSpaceOnUse"><g id="mask-2-4" data-name="mask-2"><rect id="path-1-3" data-name="path-1" class="cls-1" width="1280" height="709"/></g></mask></defs><g id="Homepage"><g id="LG-Homepage-DE"><g id="Background-3"><g id="Mask-4" data-name="Mask"><rect id="path-1-4" data-name="path-1" class="cls-2" width="1280" height="709"/></g><g class="cls-3"><path id="Oval" class="cls-4" d="M225.64,398.76C560.58,457.82,747.5,778.41,683.46,874.27s-225.13,231.18-448.63,205.18-733-122.13-691.24-358.91S-109.3,339.7,225.64,398.76Z"/></g><g class="cls-5"><path id="Fill-425" class="cls-6" d="M999.42,626.67a4,4,0,1,1,4.42,3.45A4,4,0,0,1,999.42,626.67Zm1.22,18.32a3,3,0,1,1,3.32,2.59A3,3,0,0,1,1000.64,645Zm-12-32.59a4,4,0,1,1,4.42,3.46A4,4,0,0,1,988.67,612.4Zm-3.08,42.07a4,4,0,1,1,4.43,3.45A4,4,0,0,1,985.59,654.47Zm-4.4-19a4,4,0,1,1,4.42,3.45A4,4,0,0,1,981.19,635.44Zm-4.85-36.1a4,4,0,1,1,4.43,3.45A4,4,0,0,1,976.34,599.34Zm-3.92,17.87a4,4,0,1,1,4.42,3.45A4,4,0,0,1,972.42,617.21Zm2.89,50a4,4,0,1,1,4.42,3.45A4,4,0,0,1,975.31,667.19Zm-10.79-34.1a4,4,0,1,1,4.42,3.46A4,4,0,0,1,964.52,633.09Zm1.63,18.64a4,4,0,1,1,4.42,3.46A4,4,0,0,1,966.15,651.73ZM957.7,601a4,4,0,1,1,4.42,3.45A4,4,0,0,1,957.7,601ZM952.19,620a4,4,0,1,1,4.42,3.45A4,4,0,0,1,952.19,620Zm2.89,50a4,4,0,1,1,4.42,3.46A4,4,0,0,1,955.08,670Zm-6.82-32.12a4,4,0,1,1,4.43,3.45A4,4,0,0,1,948.26,637.89Zm-.76,15.47a4,4,0,1,1,4.42,3.46A4,4,0,0,1,947.5,653.36ZM939.86,607a4,4,0,1,1,4.42,3.46A4,4,0,0,1,939.86,607Zm-2.73,19.45a4,4,0,1,1,4.42,3.45A4,4,0,0,1,937.13,626.41Zm3.69,54.35a4,4,0,1,1,4.42,3.45A4,4,0,0,1,940.82,680.76Zm-6.38-15.07a4,4,0,1,1,4.42,3.46A4,4,0,0,1,934.44,665.69Zm-4.41-19a4,4,0,1,1,4.42,3.45A4,4,0,0,1,930,646.66Zm-8.4-30.93a4,4,0,1,1,4.42,3.46A4,4,0,0,1,921.63,615.73Zm-.76,15.48a4,4,0,1,1,4.42,3.45A4,4,0,0,1,920.87,631.21Zm7.69,66.24A4,4,0,1,1,933,700.9,4,4,0,0,1,928.56,697.45Zm-6-17.84a4,4,0,1,1,4.42,3.45A4,4,0,0,1,922.57,679.61Zm-4.41-19a4,4,0,1,1,4.42,3.45A4,4,0,0,1,918.16,660.58Zm2.5,52.76a4,4,0,1,1,4.42,3.45A4,4,0,0,1,920.66,713.34Zm-10.08-69.42a4,4,0,1,1,4.42,3.46A4,4,0,0,1,910.58,643.92Zm-6-17.84a4,4,0,1,1,4.42,3.46A4,4,0,0,1,904.59,626.08Zm7.3,69a4,4,0,1,1,4.42,3.45A4,4,0,0,1,911.89,695.11Zm-7.19-19.43a4,4,0,1,1,4.42,3.46A4,4,0,0,1,904.7,675.68Zm-6-17.84a4,4,0,1,1,4.43,3.45A4,4,0,0,1,898.71,657.84Zm7.3,69a4,4,0,1,1,4.42,3.45A4,4,0,0,1,906,726.86Zm-14.48-88.44a4,4,0,1,1,4.42,3.45A4,4,0,0,1,891.53,638.42ZM900,709a4,4,0,1,1,4.42,3.45A4,4,0,0,1,900,709Zm-4.41-19a4,4,0,1,1,4.42,3.46A4,4,0,0,1,895.61,690Zm-7.19-19.42a4,4,0,1,1,4.43,3.45A4,4,0,0,1,888.42,670.56Zm-7.57-16.65a4,4,0,1,1,4.42,3.46A4,4,0,0,1,880.85,653.91Zm7.3,69a4,4,0,1,1,4.41,3.46A4,4,0,0,1,888.15,722.93Zm1.63,18.64A4,4,0,1,1,894.2,745,4,4,0,0,1,889.78,741.57Zm-6-37.67a4,4,0,1,1,4.42,3.45A4,4,0,0,1,883.74,703.9Zm-6-17.84a4,4,0,1,1,4.42,3.45A4,4,0,0,1,877.75,686.06Zm-6-17.85a4,4,0,1,1,4.43,3.46A4,4,0,0,1,871.75,668.21Zm3.33,67.06a4,4,0,1,1,4.42,3.45A4,4,0,0,1,875.08,735.27ZM872.26,715a4,4,0,1,1,4.42,3.46A4,4,0,0,1,872.26,715Zm-7.58-16.64a4,4,0,1,1,4.42,3.45A4,4,0,0,1,864.68,698.39Zm6.86,53.83c-.26-2.18.84-4.11,2.47-4.31s3.17,1.41,3.44,3.58-.84,4.1-2.47,4.3S871.81,754.38,871.54,752.22Zm-11.66-70.09a4,4,0,1,1,4.43,3.45A4,4,0,0,1,859.88,682.13Zm.9,44a4,4,0,1,1,4.42,3.45A4,4,0,0,1,860.78,726.17Zm-7.58-16.64a4,4,0,1,1,4.42,3.45A4,4,0,0,1,853.2,709.53Zm3.65,34.5a4,4,0,1,1,4.42,3.46A4,4,0,0,1,856.85,744Zm-11.23-51.16a4,4,0,1,1,4.43,3.46A4,4,0,0,1,845.62,692.87Zm5.7,67.12a3,3,0,1,1,3.32,2.6A3,3,0,0,1,851.32,760Zm-6.41-31.8a4,4,0,1,1,4.42,3.45A4,4,0,0,1,844.91,728.19Zm-7.57-16.64a4,4,0,1,1,4.41,3.45A4,4,0,0,1,837.34,711.55Zm.87,34.11a4,4,0,1,1,4.42,3.46A4,4,0,0,1,838.21,745.66ZM827,694.5A4,4,0,1,1,831.4,698,4,4,0,0,1,827,694.5Zm.87,34.13a4,4,0,1,1,4.42,3.45A4,4,0,0,1,827.85,728.63Zm-.32,32.53a4,4,0,1,1,4.42,3.45A4,4,0,0,1,827.53,761.16Zm-8.45-50.77a4,4,0,1,1,4.42,3.46A4,4,0,0,1,819.08,710.39Zm.87,34.13a4,4,0,1,1,4.42,3.45A4,4,0,0,1,820,744.52Zm-11.22-51.17a4,4,0,1,1,4.42,3.46A4,4,0,0,1,808.73,693.35Zm3.65,34.52a4,4,0,1,1,4.42,3.45A4,4,0,0,1,812.38,727.87Zm-4.3,30.55a4,4,0,1,1,4.43,3.46A4,4,0,0,1,808.08,758.42ZM802,710.83a4,4,0,1,1,4.42,3.45A4,4,0,0,1,802,710.83Zm-.32,32.54a4,4,0,1,1,4.42,3.45A4,4,0,0,1,801.7,743.37Zm-8.08-63.47a4,4,0,1,1,4.42,3.46A4,4,0,0,1,793.62,679.9Zm3.28,47.2a4,4,0,1,1,4.42,3.46A4,4,0,0,1,796.9,727.1Zm-7.21-29.33a4,4,0,1,1,4.42,3.45A4,4,0,0,1,789.69,697.77Zm-10-29.74a4,4,0,1,1,4.42,3.45A4,4,0,0,1,779.71,668Zm4.47,48.79a4,4,0,1,1,4.42,3.46A4,4,0,0,1,784.18,716.82Zm3.26,37.29a4,4,0,1,1,4.42,3.45A4,4,0,0,1,787.44,754.11Zm-3.21-17.45a4,4,0,1,1,4.42,3.45A4,4,0,0,1,784.23,736.66Zm-8.45-50.77a4,4,0,1,1,4.42,3.46A4,4,0,0,1,775.78,685.89Zm-3.93,17.87a4,4,0,1,1,4.42,3.45A4,4,0,0,1,771.85,703.76Zm-7.25-49.18A4,4,0,1,1,769,658,4,4,0,0,1,764.6,654.58Zm5.71,70.21a4,4,0,1,1,4.42,3.45A4,4,0,0,1,770.31,724.79ZM761.86,674a4,4,0,1,1,4.43,3.46A4,4,0,0,1,761.86,674Zm5.72,70.22a4,4,0,1,1,4.42,3.45A4,4,0,0,1,767.58,744.24Zm-8.45-50.77a4,4,0,1,1,4.42,3.45A4,4,0,0,1,759.13,693.47Zm-10-49.57a4,4,0,1,1,4.42,3.45A4,4,0,0,1,749.1,643.9Zm7.3,69a4,4,0,1,1,4.42,3.46A4,4,0,0,1,756.4,712.91Zm-7.25-49.17a4,4,0,1,1,4.42,3.45A4,4,0,0,1,749.15,663.74Zm4.52,68.62a4,4,0,1,1,4.42,3.46A4,4,0,0,1,753.67,732.36Zm-7.26-49.18a4,4,0,1,1,4.42,3.46A4,4,0,0,1,746.41,683.18ZM742.48,701a4,4,0,1,1,4.43,3.46A4,4,0,0,1,742.48,701Zm-10.85-63.85a4,4,0,1,1,4.42,3.46A4,4,0,0,1,731.63,637.19Zm.43,17.06a4,4,0,1,1,4.42,3.46A4,4,0,0,1,732.06,654.25Zm7.69,66.24a4,4,0,1,1,4.43,3.46A4,4,0,0,1,739.75,720.49Zm-6.06-47.59a4,4,0,1,1,4.42,3.45A4,4,0,0,1,733.69,672.9Zm-6.31,14.69A4,4,0,1,1,731.8,691,4,4,0,0,1,727.38,687.59Zm0,19.84a4,4,0,1,1,4.42,3.45A4,4,0,0,1,727.42,707.43Zm-12.07-75.36a4,4,0,1,1,4.42,3.45A4,4,0,0,1,715.35,632.07ZM719,666.58a4,4,0,1,1,4.42,3.45A4,4,0,0,1,719,666.58Zm-6-17.84a4,4,0,1,1,4.41,3.45A4,4,0,0,1,713,648.74Zm-1.91,33.73a4,4,0,1,1,4.42,3.45A4,4,0,0,1,711.1,682.47Zm.43,17.06A4,4,0,1,1,716,703,4,4,0,0,1,711.53,699.53Zm-9.2-35.3a4,4,0,1,1,4.42,3.46A4,4,0,0,1,702.33,664.23Zm-4.43-29a4,4,0,1,1,4.42,3.46A4,4,0,0,1,697.9,635.28Zm-5.12,16.28A4,4,0,1,1,697.2,655,4,4,0,0,1,692.78,651.56ZM696.45,696a4,4,0,1,1,4.42,3.46A4,4,0,0,1,696.45,696Zm-3.21-17.45a4,4,0,1,1,4.42,3.46A4,4,0,0,1,693.24,678.54Zm-11.31-43.12a4,4,0,1,1,4.42,3.45A4,4,0,0,1,681.93,635.42Zm-1,30.05a4,4,0,1,1,4.42,3.46A4,4,0,0,1,680.91,665.47ZM675.72,652a4,4,0,1,1,4.42,3.45A4,4,0,0,1,675.72,652Zm2.45,32.93a4,4,0,1,1,4.42,3.45A4,4,0,0,1,678.17,684.93Zm1.63,18.64a4,4,0,1,1,4.42,3.45A4,4,0,0,1,679.8,703.57Zm-18-63.45a4,4,0,1,1,4.43,3.46A4,4,0,0,1,661.8,640.12Zm2.07,35.71a4,4,0,1,1,4.42,3.45A4,4,0,0,1,663.87,675.83Zm-3.21-17.45a4,4,0,1,1,4.42,3.46A4,4,0,0,1,660.66,658.38Zm6.47,54.74a4,4,0,1,1,4.42,3.45A4,4,0,0,1,667.13,713.12Zm-2.83-20.23a4,4,0,1,1,4.43,3.46A4,4,0,0,1,664.3,692.89ZM645.16,647.7a4,4,0,1,1,4.42,3.46A4,4,0,0,1,645.16,647.7Zm1.63,18.64a4,4,0,1,1,4.42,3.46A3.95,3.95,0,0,1,646.79,666.34Zm4.45,38.88a4,4,0,1,1,4.42,3.45A4,4,0,0,1,651.24,705.22ZM648.42,685a4,4,0,1,1,4.42,3.46A4,4,0,0,1,648.42,685Zm4.45,38.88a4,4,0,1,1,4.42,3.45A4,4,0,0,1,652.87,723.87Zm-1.55,17.93a3,3,0,1,1,3.31,2.59A3,3,0,0,1,651.32,741.8Zm-17.16-46.06a4,4,0,1,1,4.42,3.45A4,4,0,0,1,634.16,695.74Zm-4.85-36.1a4,4,0,1,1,4.43,3.46A4,4,0,0,1,629.31,659.64Zm6.48,54.74a4,4,0,1,1,4.42,3.46A4,4,0,0,1,635.79,714.38Zm-4.85-36.09a4,4,0,1,1,4.42,3.45A4,4,0,0,1,630.94,678.29Zm6.52,74.58a4,4,0,1,1,4.42,3.45A4,4,0,0,1,637.46,752.87Zm-2.82-20.24a4,4,0,1,1,4.42,3.46A4,4,0,0,1,634.64,732.63Zm-16.37-44.79a4,4,0,1,1,4.42,3.45A4,4,0,0,1,618.27,687.84Zm.43,17.06a4,4,0,1,1,4.42,3.45A4,4,0,0,1,618.7,704.9Zm5.7,60.29a4,4,0,1,1,4.42,3.46A4,4,0,0,1,624.4,765.19ZM621.57,745a4,4,0,1,1,4.42,3.46A4,4,0,0,1,621.57,745Zm-2.82-20.23a4,4,0,1,1,4.42,3.46A4,4,0,0,1,618.75,724.73Zm-6.86-52a4,4,0,1,1,4.42,3.45A4,4,0,0,1,611.89,672.78ZM602,692.63a4,4,0,1,1,4.42,3.46A4,4,0,0,1,602,692.63Zm9.32,84.89a4,4,0,1,1,4.42,3.46A4,4,0,0,1,611.33,777.52Zm-8.08-63.46a4,4,0,1,1,4.42,3.45A4,4,0,0,1,603.25,714.06Zm4.06,41.65a4,4,0,1,1,4.42,3.45A4,4,0,0,1,607.31,755.71Zm-2.82-20.23a4,4,0,1,1,4.42,3.45A4,4,0,0,1,604.49,735.48Zm-15.93-27.74A4,4,0,1,1,593,711.2,4,4,0,0,1,588.56,707.74Zm1.63,18.65a4,4,0,1,1,4.42,3.45A4,4,0,0,1,590.19,726.39Zm2.86,40.06a4,4,0,1,1,4.43,3.46A4,4,0,0,1,593.05,766.45Zm-2.82-20.22a4,4,0,1,1,4.42,3.45A4,4,0,0,1,590.23,746.23Zm2.87,40.06a4,4,0,1,1,4.42,3.46A4,4,0,0,1,593.1,786.29Zm-19.19-65a4,4,0,1,1,4.42,3.45A4,4,0,0,1,573.91,721.27Zm.43,17.05a4,4,0,1,1,4.42,3.46A4,4,0,0,1,574.34,738.32ZM576,757a4,4,0,1,1,4.42,3.45A4,4,0,0,1,576,757Zm1.63,18.64a4,4,0,1,1,4.42,3.46A4,4,0,0,1,577.6,775.61Zm-3.14,19.14a3,3,0,1,1,3.32,2.59A3,3,0,0,1,574.46,794.75ZM555.68,730a4,4,0,1,1,4.42,3.45A4,4,0,0,1,555.68,730Zm3.65,34.51a4,4,0,1,1,4.42,3.45A4,4,0,0,1,559.33,764.55Zm-2-15.87a4,4,0,1,1,4.42,3.45A4,4,0,0,1,557.31,748.68Zm2.45,32.93a4,4,0,1,1,4.42,3.45A4,4,0,0,1,559.76,781.61Zm-10.29,12.71a4,4,0,1,1,4.43,3.46A4,4,0,0,1,549.47,794.32Zm-6-17.83a4,4,0,1,1,4.42,3.45A4,4,0,0,1,543.48,776.49Zm-4.84-36.1a4,4,0,1,1,4.42,3.46A4,4,0,0,1,538.64,740.39ZM540.27,759a4,4,0,1,1,4.42,3.46A4,4,0,0,1,540.27,759ZM535,725.72a4,4,0,1,1,4.43,3.45A4,4,0,0,1,535,725.72Zm-3.42,64.68a4,4,0,1,1,4.42,3.45A4,4,0,0,1,531.61,790.4Zm-6-17.84A4,4,0,1,1,530,776,4,4,0,0,1,525.62,772.56Zm-7.28-59.1a4,4,0,1,1,4.42,3.45A4,4,0,0,1,518.34,713.46Zm4.45,38.87a4,4,0,1,1,4.43,3.45A4,4,0,0,1,522.79,752.33Zm-3.21-17.45a4,4,0,1,1,4.42,3.45A4,4,0,0,1,519.58,734.88Zm-15.15-33.3a4,4,0,1,1,4.42,3.46A4,4,0,0,1,504.43,701.58Zm8.12,83.31a4,4,0,1,1,4.42,3.45A4,4,0,0,1,512.55,784.89Zm-4.4-19a4,4,0,1,1,4.42,3.45A4,4,0,0,1,508.15,765.86Zm-2.83-20.24a4,4,0,1,1,4.42,3.46A4,4,0,0,1,505.32,745.62ZM502.5,725.4a4,4,0,1,1,4.42,3.45A4,4,0,0,1,502.5,725.4Zm-14-31.72a4,4,0,1,1,4.42,3.46A4,4,0,0,1,488.54,693.68Zm-1.54,21a4,4,0,1,1,4.42,3.45A4,4,0,0,1,487,714.72Zm6.89,61.88a4,4,0,1,1,4.42,3.45A4,4,0,0,1,493.89,776.6Zm-4.41-19A4,4,0,1,1,493.9,761,4,4,0,0,1,489.48,757.57Zm-2.82-20.24a4,4,0,1,1,4.41,3.46A4,4,0,0,1,486.66,737.33Zm-8.86-57.9a4,4,0,1,1,4.42,3.45A4,4,0,0,1,477.8,679.43Zm-7.08,30.16a4,4,0,1,1,4.42,3.46A4,4,0,0,1,470.72,709.59Zm-3.21-17.44a4,4,0,1,1,4.42,3.45A4,4,0,0,1,467.51,692.15ZM472,731a4,4,0,1,1,4.42,3.45A4,4,0,0,1,472,731Zm4.91,38.45a2.11,2.11,0,1,1,2.35,1.83A2.11,2.11,0,0,1,476.87,769.47Zm-6.45-17.42a4,4,0,1,1,4.42,3.46A4,4,0,0,1,470.42,752.05Zm-10.1-79.33a4,4,0,1,1,4.42,3.46A4,4,0,0,1,460.32,672.72Zm-5.44,48.82A4,4,0,1,1,459.3,725,4,4,0,0,1,454.88,721.54Zm-3.21-17.45a4,4,0,1,1,4.42,3.45A4,4,0,0,1,451.67,704.09ZM456.12,743a4,4,0,1,1,4.42,3.45A4,4,0,0,1,456.12,743Zm-10.45-56.72a4,4,0,1,1,4.42,3.46A4,4,0,0,1,445.67,686.24Zm-6-17.83a4,4,0,1,1,4.43,3.45A4,4,0,0,1,439.68,668.41Zm.55,66.65a4,4,0,1,1,4.42,3.45A4,4,0,0,1,440.23,735.06Zm-6-17.84a4,4,0,1,1,4.42,3.45A4,4,0,0,1,434.24,717.22ZM431,699.77a4,4,0,1,1,4.43,3.45A4,4,0,0,1,431,699.77Zm-3.21-17.45a4,4,0,1,1,4.42,3.45A4,4,0,0,1,427.81,682.32Zm-10.74-14.26a4,4,0,1,1,4.42,3.45A4,4,0,0,1,417.07,668.06Zm4.1,61.49a4,4,0,1,1,4.42,3.45A4,4,0,0,1,421.17,729.55Zm-6-17.84a4,4,0,1,1,4.42,3.45A4,4,0,0,1,415.18,711.71Zm-4-21.81a4,4,0,1,1,4.42,3.45A4,4,0,0,1,411.16,689.9Zm-14.32-19a4,4,0,1,1,4.42,3.46A4,4,0,0,1,396.84,670.88Zm6.88,61.88a4,4,0,1,1,4.42,3.46A4,4,0,0,1,403.72,732.76Zm-6.79-22.2a4,4,0,1,1,4.42,3.45A4,4,0,0,1,396.93,710.56Zm-4.41-19a4,4,0,1,1,4.42,3.45A4,4,0,0,1,392.52,691.53Zm-1.86,53.56a4,4,0,1,1,4.42,3.46A4,4,0,0,1,390.66,745.09ZM377,680.84a4,4,0,1,1,4.42,3.46A4,4,0,0,1,377,680.84Zm5.26,43.24a4,4,0,1,1,4.42,3.46A4,4,0,0,1,382.28,724.08Zm-5.6-20.62a4,4,0,1,1,4.42,3.46A4,4,0,0,1,376.68,703.46Zm3.3,57.13A4,4,0,1,1,384.4,764,4,4,0,0,1,380,760.59Zm-8.38-21A4,4,0,1,1,376,743,4,4,0,0,1,371.6,739.58ZM360,691.2a4,4,0,1,1,4.43,3.46A4,4,0,0,1,360,691.2Zm.85,24.2a4,4,0,1,1,4.42,3.46A4,4,0,0,1,360.83,715.4Zm5.69,60.3a4,4,0,1,1,4.43,3.45A4,4,0,0,1,366.52,775.7Zm-10-19.82a4,4,0,1,1,4.42,3.46A4,4,0,0,1,356.56,755.88Zm-3.63-24.59a4,4,0,1,1,4.43,3.45A4,4,0,0,1,352.93,731.29Zm-8.79-28.15a4,4,0,1,1,4.42,3.45A4,4,0,0,1,344.14,703.14Zm3.35,77a4,4,0,1,1,4.42,3.46A4,4,0,0,1,347.49,780.1ZM336.24,719a4,4,0,1,1,4.42,3.45A4,4,0,0,1,336.24,719Zm2.48,42.85a4,4,0,1,1,4.42,3.45A4,4,0,0,1,338.72,761.88Zm-2.82-20.24a4,4,0,1,1,4.41,3.46A4,4,0,0,1,335.9,741.64Zm-15.91-11a3,3,0,1,1,3.32,2.59A3,3,0,0,1,320,730.65Zm.06,22.93a4,4,0,1,1,4.42,3.46A4,4,0,0,1,320.05,753.58Zm6.07,22.93A1.7,1.7,0,1,1,328,778,1.7,1.7,0,0,1,326.12,776.51Z"/></g><g class="cls-7"><path id="Fill-426" class="cls-6" d="M1153,290.53a2.73,2.73,0,1,1-3.69,1.13A2.74,2.74,0,0,1,1153,290.53ZM963.77,189.85a2.72,2.72,0,1,1-3.69,1.13A2.72,2.72,0,0,1,963.77,189.85ZM1169,297.65a2.73,2.73,0,1,1-3.69,1.13A2.72,2.72,0,0,1,1169,297.65ZM948.84,180.51a2.7,2.7,0,1,1-3.65,1.12A2.7,2.7,0,0,1,948.84,180.51Zm30.82,12.56a2.72,2.72,0,1,1-3.69,1.12A2.71,2.71,0,0,1,979.66,193.07Zm164.48,82.67a2.73,2.73,0,1,1-3.69,1.13A2.74,2.74,0,0,1,1144.14,275.74Zm42.74,21.44a2.72,2.72,0,1,1-3.68,1.12A2.71,2.71,0,0,1,1186.88,297.18ZM995.83,191.6a2.72,2.72,0,1,1-3.68,1.13A2.72,2.72,0,0,1,995.83,191.6ZM961.32,173a2.73,2.73,0,1,1-3.69,1.13A2.72,2.72,0,0,1,961.32,173ZM944.76,164a2.73,2.73,0,1,1-3.69,1.13A2.72,2.72,0,0,1,944.76,164Zm218.57,114.25a2.72,2.72,0,1,1-3.68,1.12A2.72,2.72,0,0,1,1163.33,278.28ZM976,177a2.73,2.73,0,1,1-3.68,1.13A2.72,2.72,0,0,1,976,177Zm202.13,107a2.73,2.73,0,1,1-3.69,1.13A2.73,2.73,0,0,1,1178.16,283.94Zm-36.67-26a2.7,2.7,0,1,1-3.65,1.12A2.7,2.7,0,0,1,1141.49,258ZM991.26,177.44a2.73,2.73,0,1,1-3.69,1.13A2.74,2.74,0,0,1,991.26,177.44Zm211.54,112.4a2.73,2.73,0,1,1-3.68,1.13A2.73,2.73,0,0,1,1202.8,289.84Zm-245.22-132a2.73,2.73,0,1,1-3.68,1.13A2.73,2.73,0,0,1,957.58,157.79Zm199.23,105.74a2.73,2.73,0,1,1-3.69,1.13A2.72,2.72,0,0,1,1156.81,263.53ZM946.61,146.9a2.72,2.72,0,1,1-3.69,1.13A2.73,2.73,0,0,1,946.61,146.9ZM972,160.21a2.73,2.73,0,1,1-3.69,1.13A2.73,2.73,0,0,1,972,160.21Zm220.58,117.18a2.73,2.73,0,1,1-3.68,1.13A2.72,2.72,0,0,1,1192.61,277.39Zm-185.29-98.93a2.73,2.73,0,1,1-3.69,1.13A2.72,2.72,0,0,1,1007.32,178.46Zm170.45,88.27a2.73,2.73,0,1,1-3.69,1.13A2.72,2.72,0,0,1,1177.77,266.73ZM986.61,162a2.72,2.72,0,1,1-3.69,1.13A2.74,2.74,0,0,1,986.61,162Zm180.79,91.07a2.73,2.73,0,1,1-3.69,1.13A2.73,2.73,0,0,1,1167.4,253.06Zm-16.21-9a2.72,2.72,0,1,1-3.68,1.13A2.73,2.73,0,0,1,1151.19,244.08ZM963.92,144.15a2.72,2.72,0,1,1-3.69,1.12A2.73,2.73,0,0,1,963.92,144.15Zm37.83,19.13a2.72,2.72,0,1,1-3.69,1.13A2.72,2.72,0,0,1,1001.75,163.28Zm208.88,110.17a2.73,2.73,0,1,1-3.69,1.13A2.73,2.73,0,0,1,1210.63,273.45Zm-13.4-11.84a2.73,2.73,0,1,1-3.69,1.13A2.72,2.72,0,0,1,1197.23,261.61Zm-217-115.71a2.72,2.72,0,1,1-3.69,1.12A2.71,2.71,0,0,1,980.23,145.9ZM954.54,131a2.66,2.66,0,1,1-3.6,1.1A2.67,2.67,0,0,1,954.54,131Zm63,32.38a2.73,2.73,0,1,1-3.69,1.13A2.73,2.73,0,0,1,1017.58,163.36Zm166.56,87.08a2.72,2.72,0,1,1-3.69,1.12A2.72,2.72,0,0,1,1184.14,250.44ZM995.84,147.17a2.73,2.73,0,1,1-3.69,1.13A2.74,2.74,0,0,1,995.84,147.17Zm173.36,90.58a2.73,2.73,0,1,1-3.69,1.13A2.73,2.73,0,0,1,1169.2,237.75ZM972.94,131a2.73,2.73,0,1,1-3.69,1.13A2.74,2.74,0,0,1,972.94,131Zm181.42,95.79a2.72,2.72,0,1,1-3.69,1.13A2.74,2.74,0,0,1,1154.36,226.75Zm-143-77.73a2.73,2.73,0,1,1-3.69,1.13A2.73,2.73,0,0,1,1011.34,149Zm204.43,108a2.72,2.72,0,1,1-3.69,1.13A2.73,2.73,0,0,1,1215.77,257Zm-13.61-11.73a2.73,2.73,0,1,1-3.69,1.13A2.73,2.73,0,0,1,1202.16,245.31ZM989.37,131.22a2.73,2.73,0,1,1-3.68,1.13A2.72,2.72,0,0,1,989.37,131.22Zm-24.26-13.58a2.73,2.73,0,1,1-3.68,1.13A2.72,2.72,0,0,1,965.11,117.64Zm222.26,116.88a2.73,2.73,0,1,1-3.69,1.13A2.74,2.74,0,0,1,1187.37,234.52Zm-158.24-84.9a2.72,2.72,0,1,1-3.68,1.13A2.73,2.73,0,0,1,1029.13,149.62Zm143.44,72.61a2.73,2.73,0,1,1-3.68,1.13A2.72,2.72,0,0,1,1172.57,222.23Zm-167.88-90.06a2.73,2.73,0,1,1-3.69,1.13A2.73,2.73,0,0,1,1004.69,132.17Zm14.76,4.12a2.72,2.72,0,1,1-3.68,1.13A2.71,2.71,0,0,1,1019.45,136.29ZM1158.31,210a2.72,2.72,0,1,1-3.69,1.12A2.71,2.71,0,0,1,1158.31,210ZM983,116.68a2.73,2.73,0,1,1-3.69,1.13A2.72,2.72,0,0,1,983,116.68Zm237.26,123.64a2.72,2.72,0,1,1-3.69,1.13A2.73,2.73,0,0,1,1220.29,240.32Zm-14-11.26a2.73,2.73,0,1,1-3.69,1.13A2.73,2.73,0,0,1,1206.33,229.06ZM1044,141.23a2.72,2.72,0,1,1-3.69,1.12A2.72,2.72,0,0,1,1044,141.23Zm147.49,78.15a2.73,2.73,0,1,1-3.69,1.13A2.73,2.73,0,0,1,1191.44,219.38ZM974.18,103.84a2.51,2.51,0,1,1-3.39,1A2.49,2.49,0,0,1,974.18,103.84Zm25.59,11.61a2.72,2.72,0,1,1-3.69,1.12A2.71,2.71,0,0,1,999.77,115.45Zm32.7,14.94a2.72,2.72,0,1,1-3.68,1.12A2.71,2.71,0,0,1,1032.47,130.39Zm145.71,77.1a2.73,2.73,0,1,1-3.69,1.13A2.72,2.72,0,0,1,1178.18,207.49Zm-25.48-14.07a2.72,2.72,0,1,1-3.68,1.13A2.72,2.72,0,0,1,1152.7,193.42Zm-135.92-73.56a2.72,2.72,0,1,1-3.69,1.13A2.73,2.73,0,0,1,1016.78,119.86Zm-27.64-19.6a2.73,2.73,0,1,1-3.69,1.13A2.73,2.73,0,0,1,989.14,100.26Zm71.29,36.31a2.72,2.72,0,1,1-3.69,1.12A2.71,2.71,0,0,1,1060.43,136.57Zm109.32,58a2.72,2.72,0,1,1-3.69,1.13A2.74,2.74,0,0,1,1169.75,194.53Zm54.32,28.33a2.73,2.73,0,1,1-3.68,1.13A2.73,2.73,0,0,1,1224.07,222.86Zm-14.86-10.62a2.72,2.72,0,1,1-3.69,1.13A2.73,2.73,0,0,1,1209.21,212.24ZM1195.44,204a2.73,2.73,0,1,1-3.69,1.13A2.73,2.73,0,0,1,1195.44,204Zm-146.39-79a2.73,2.73,0,1,1-3.69,1.13A2.72,2.72,0,0,1,1049.05,125ZM1147.24,175a2.72,2.72,0,1,1-3.68,1.12A2.72,2.72,0,0,1,1147.24,175ZM1008,100.79a2.72,2.72,0,1,1-3.69,1.12A2.72,2.72,0,0,1,1008,100.79Zm28.16,14.77a2.73,2.73,0,1,1-3.69,1.13A2.74,2.74,0,0,1,1036.16,115.56ZM1023,106.27a2.72,2.72,0,1,1-3.69,1.13A2.74,2.74,0,0,1,1023,106.27ZM1162.23,180a2.73,2.73,0,1,1-3.69,1.13A2.74,2.74,0,0,1,1162.23,180Zm25.07,10.91a2.72,2.72,0,1,1-3.69,1.13A2.72,2.72,0,0,1,1187.3,190.89Zm-109.46-58.47a2.72,2.72,0,1,1-3.68,1.12A2.71,2.71,0,0,1,1077.84,132.42ZM997,88.14a2.71,2.71,0,1,1-3.67,1.12A2.71,2.71,0,0,1,997,88.14ZM1066.09,122a2.72,2.72,0,1,1-3.69,1.12A2.71,2.71,0,0,1,1066.09,122Zm157.1,82.7a2.72,2.72,0,1,1-3.69,1.12A2.71,2.71,0,0,1,1223.19,204.72Zm-82.11-44.45a2.72,2.72,0,1,1-3.69,1.13A2.71,2.71,0,0,1,1141.08,160.27Zm-47-25.53a2.72,2.72,0,1,1-3.69,1.13A2.73,2.73,0,0,1,1094.1,134.74ZM1126.56,151a2.72,2.72,0,1,1-3.69,1.12A2.73,2.73,0,0,1,1126.56,151Zm-15.77-9.25a2.73,2.73,0,1,1-3.68,1.13A2.73,2.73,0,0,1,1110.79,141.72Zm67,35.54a2.72,2.72,0,1,1-3.69,1.12A2.71,2.71,0,0,1,1177.82,177.26Zm29.44,15.1a2.73,2.73,0,1,1-3.69,1.13A2.74,2.74,0,0,1,1207.26,192.36Zm-152.19-82.93a2.72,2.72,0,1,1-3.68,1.13A2.73,2.73,0,0,1,1055.07,109.43Zm-16-8.7a2.72,2.72,0,1,1-3.69,1.12A2.72,2.72,0,0,1,1039.05,100.73Zm-14.37-9.83A2.72,2.72,0,1,1,1021,92,2.73,2.73,0,0,1,1024.68,90.9Zm138,72.9a2.73,2.73,0,1,1-3.69,1.13A2.73,2.73,0,0,1,1162.73,163.8ZM1011.47,82.07a2.72,2.72,0,1,1-3.69,1.12A2.72,2.72,0,0,1,1011.47,82.07Zm185.35,95a2.72,2.72,0,1,1-3.69,1.12A2.71,2.71,0,0,1,1196.82,177.11Zm-109.24-58.8a2.73,2.73,0,1,1-3.69,1.13A2.74,2.74,0,0,1,1087.58,118.31Zm-14-8.72a2.73,2.73,0,1,1-3.69,1.13A2.73,2.73,0,0,1,1073.62,109.59ZM1223,187.76a2.73,2.73,0,1,1-3.69,1.13A2.72,2.72,0,0,1,1223,187.76Zm-116.38-62.18a2.73,2.73,0,1,1-3.69,1.13A2.72,2.72,0,0,1,1106.66,125.58Zm17.84,7.72a2.73,2.73,0,1,1-3.69,1.13A2.74,2.74,0,0,1,1124.5,133.3Zm15.91,7.83a2.72,2.72,0,1,1-3.68,1.13A2.72,2.72,0,0,1,1140.41,141.13Zm14.75,7.58a2.72,2.72,0,1,1-3.69,1.12A2.73,2.73,0,0,1,1155.16,148.71Zm-102-54.83a2.73,2.73,0,1,1-3.69,1.13A2.73,2.73,0,0,1,1053.14,93.88Zm130.2,69a2.72,2.72,0,1,1-3.69,1.13A2.72,2.72,0,0,1,1183.34,162.83ZM1040.66,84.11a2.73,2.73,0,1,1-3.68,1.13A2.72,2.72,0,0,1,1040.66,84.11Zm174.21,90.27a2.73,2.73,0,1,1-3.69,1.13A2.73,2.73,0,0,1,1214.87,174.38ZM1026.18,74a2.71,2.71,0,1,1-3.67,1.12A2.72,2.72,0,0,1,1026.18,74Zm42.46,21a2.73,2.73,0,1,1-3.69,1.13A2.73,2.73,0,0,1,1068.64,95Zm104.64,54.62a2.72,2.72,0,1,1-3.69,1.13A2.74,2.74,0,0,1,1173.28,149.64Zm-71.68-39.2a2.73,2.73,0,1,1-3.69,1.13A2.73,2.73,0,0,1,1101.6,110.44ZM1200.84,161a2.73,2.73,0,1,1-3.69,1.13A2.74,2.74,0,0,1,1200.84,161ZM1120.11,117a2.72,2.72,0,1,1-3.69,1.12A2.71,2.71,0,0,1,1120.11,117Zm-34.17-18.3a2.73,2.73,0,1,1-3.69,1.13A2.74,2.74,0,0,1,1085.94,98.66Zm51.45,24.11a2.73,2.73,0,1,1-3.69,1.13A2.72,2.72,0,0,1,1137.39,122.77Zm-77.55-43a2.72,2.72,0,1,1-3.69,1.13A2.73,2.73,0,0,1,1059.84,79.73Zm92.77,49a2.73,2.73,0,1,1-3.69,1.13A2.73,2.73,0,0,1,1152.61,128.74ZM1042.33,69.32a2.72,2.72,0,1,1-3.69,1.12A2.71,2.71,0,0,1,1042.33,69.32Zm123.86,65.8a2.72,2.72,0,1,1-3.69,1.13A2.72,2.72,0,0,1,1166.19,135.12Zm24.3,11.31a2.72,2.72,0,1,1-3.68,1.13A2.73,2.73,0,0,1,1190.49,146.43Zm27,12a2.67,2.67,0,1,1-3.61,1.1A2.67,2.67,0,0,1,1217.54,158.46ZM1101.1,95a2.72,2.72,0,1,1-3.69,1.13A2.73,2.73,0,0,1,1101.1,95Zm-23-13.44a2.72,2.72,0,1,1-3.69,1.13A2.73,2.73,0,0,1,1078.13,81.52Zm38.23,19.62a2.73,2.73,0,1,1-3.69,1.13A2.74,2.74,0,0,1,1116.36,101.14Zm17.14,5.49a2.73,2.73,0,1,1-3.69,1.13A2.73,2.73,0,0,1,1133.5,106.63Zm48.16,25.2A2.73,2.73,0,1,1,1178,133,2.74,2.74,0,0,1,1181.66,131.83ZM1057.33,65.18a2.71,2.71,0,1,1-3.66,1.12A2.7,2.7,0,0,1,1057.33,65.18Zm150.14,79a2.73,2.73,0,1,1-3.69,1.13A2.73,2.73,0,0,1,1207.47,144.23Zm-55.68-32.83a2.73,2.73,0,1,1-3.69,1.13A2.73,2.73,0,0,1,1151.79,111.4Zm-57.54-30.68a2.72,2.72,0,1,1-3.69,1.12A2.72,2.72,0,0,1,1094.25,80.72Zm74.3,36.83a2.73,2.73,0,1,1-3.69,1.13A2.72,2.72,0,0,1,1168.55,117.55Zm-95.66-51.43a2.73,2.73,0,1,1-3.69,1.13A2.74,2.74,0,0,1,1072.89,66.12ZM1112,83.46a2.73,2.73,0,1,1-3.69,1.13A2.73,2.73,0,0,1,1112,83.46Zm87.41,45.73a2.72,2.72,0,1,1-3.69,1.13A2.74,2.74,0,0,1,1199.41,129.19ZM1128,89.83a2.73,2.73,0,1,1-3.69,1.13A2.73,2.73,0,0,1,1128,89.83Zm17.23,5.81a2.72,2.72,0,1,1-3.68,1.12A2.71,2.71,0,0,1,1145.23,95.64ZM1089,64.92a2.73,2.73,0,1,1-3.68,1.13A2.73,2.73,0,0,1,1089,64.92Zm98.69,51.42a2.73,2.73,0,1,1-3.69,1.13A2.73,2.73,0,0,1,1187.72,116.34ZM1163.8,98a2.73,2.73,0,1,1-3.69,1.13A2.73,2.73,0,0,1,1163.8,98Zm-57.54-30.83a2.72,2.72,0,1,1-3.69,1.12A2.71,2.71,0,0,1,1106.26,67.14Zm72,35.85a2.65,2.65,0,1,1-3.58,1.1A2.64,2.64,0,0,1,1178.23,103Zm-54.8-30.87a2.73,2.73,0,1,1-3.69,1.13A2.73,2.73,0,0,1,1123.43,72.12ZM1139.31,79a2.73,2.73,0,1,1-3.69,1.13A2.74,2.74,0,0,1,1139.31,79Zm16.61,5.09a2.51,2.51,0,1,1-3.39,1A2.51,2.51,0,0,1,1155.92,84.05Z"/>
</g></g></g></g></svg>